<svg xmlns="http://www.w3.org/2000/svg" viewBox="0 0 580.4 127" width="580.4" height="127" role="img" aria-label="Wiffletree">
<title>Wiffletree</title>
<rect fill="#2D5A5A" x="0" y="0" width="127" height="127" rx="29.21"/>
<g transform="translate(15.24 40.24) scale(0.21738739)">
<path fill="#F3F2ED" d="M18 0 H79 Q97 0 107 16 L190 146 Q193 150 190 155 L149 201 Q128 223 107 203 L3 29 Q0 10 7 2 Q11 0 18 0 Z M277 106 L324 18 Q334 0 355 0 H425 Q453 0 439 26 L326 191 Z M212 147 H265 L302 201 Q310 210 299 210 H269 Q248 210 239 192 Z"/>
<path fill="#D63C35" d="M176 74 H207 Q220 74 229 88 L265 143 Q268 147 261 147 H212 L169 83 Q165 74 176 74 Z"/>
</g>
<path fill="#F3F2ED" d="M172.6 99.65 157.0 48.650000000000006H170.20000000000002L179.4 86.95H178.5L189.8 48.650000000000006H201.3L212.8 86.95H211.8L220.9 48.650000000000006H233.8L218.20000000000002 99.65H206.4L194.9 61.75000000000001H195.9L184.4 99.65Z M238.3 99.65V48.650000000000006H250.90000000000003V99.65ZM237.70000000000002 40.25V26.35000000000001H251.40000000000003V40.25Z M264.8 99.65V43.95Q264.8 35.55 269.45000000000005 31.1Q274.1 26.650000000000006 283.40000000000003 26.650000000000006Q285.5 26.650000000000006 286.9 26.85Q288.3 27.049999999999997 289.6 27.450000000000003V37.25Q288.90000000000003 36.95 287.80000000000007 36.800000000000004Q286.70000000000005 36.650000000000006 285.3 36.650000000000006Q281.3 36.650000000000006 279.35 38.60000000000001Q277.40000000000003 40.550000000000004 277.40000000000003 44.25V99.65ZM255.60000000000002 58.550000000000004V48.650000000000006H288.5V58.550000000000004Z M299.40000000000003 99.65V43.95Q299.40000000000003 35.55 304.05000000000007 31.1Q308.70000000000005 26.650000000000006 318.00000000000006 26.650000000000006Q320.1 26.650000000000006 321.5 26.85Q322.90000000000003 27.049999999999997 324.20000000000005 27.450000000000003V37.25Q323.50000000000006 36.95 322.4000000000001 36.800000000000004Q321.30000000000007 36.650000000000006 319.90000000000003 36.650000000000006Q315.90000000000003 36.650000000000006 313.95000000000005 38.60000000000001Q312.00000000000006 40.550000000000004 312.00000000000006 44.25V99.65ZM290.20000000000005 58.550000000000004V48.650000000000006H323.1V58.550000000000004Z M329.40000000000003 99.65V27.650000000000006H342.00000000000006V99.65Z M375.30000000000007 100.65Q367.20000000000005 100.65 361.15000000000003 97.25Q355.1 93.85000000000001 351.75 87.85000000000001Q348.40000000000003 81.85000000000001 348.40000000000003 74.05000000000001Q348.40000000000003 66.25 351.75 60.3Q355.1 54.35 361.1 51.0Q367.1 47.650000000000006 375.1 47.650000000000006Q382.70000000000005 47.650000000000006 388.30000000000007 50.800000000000004Q393.90000000000003 53.95 397.0 59.65Q400.1 65.35 400.1 72.95Q400.1 74.35000000000001 400.0 75.55000000000001Q399.90000000000003 76.75 399.70000000000005 77.95H356.20000000000005V69.15H390.00000000000006L387.40000000000003 71.55000000000001Q387.40000000000003 64.35 384.1 60.75Q380.80000000000007 57.150000000000006 374.90000000000003 57.150000000000006Q368.50000000000006 57.150000000000006 364.75000000000006 61.550000000000004Q361.00000000000006 65.95 361.00000000000006 74.25Q361.00000000000006 82.45 364.75000000000006 86.80000000000001Q368.50000000000006 91.15 375.40000000000003 91.15Q379.40000000000003 91.15 382.40000000000003 89.65Q385.40000000000003 88.15 386.80000000000007 85.05000000000001H398.70000000000005Q396.20000000000005 92.25 390.25000000000006 96.45Q384.30000000000007 100.65 375.30000000000007 100.65Z"/>
<path fill="#86C1BC" d="M428.30000000000007 100.65Q418.90000000000003 100.65 414.45000000000005 96.2Q410.00000000000006 91.75 410.00000000000006 82.85000000000001V37.050000000000004L422.70000000000005 32.35000000000001V83.15Q422.70000000000005 86.85000000000001 424.70000000000005 88.65Q426.70000000000005 90.45 431.00000000000006 90.45Q432.70000000000005 90.45 434.05000000000007 90.2Q435.40000000000003 89.95 436.6 89.55000000000001V99.35000000000001Q435.40000000000003 99.95 433.20000000000005 100.30000000000001Q431.00000000000006 100.65 428.30000000000007 100.65ZM400.20000000000005 58.550000000000004V48.650000000000006H436.6V58.550000000000004Z M443.00000000000006 99.65V48.650000000000006H455.30000000000007V60.95H455.6000000000001V99.65ZM455.6000000000001 73.05000000000001 454.30000000000007 60.95Q456.1000000000001 54.45 460.4000000000001 51.050000000000004Q464.70000000000005 47.650000000000006 470.70000000000005 47.650000000000006Q472.80000000000007 47.650000000000006 473.70000000000005 48.050000000000004V59.95Q473.20000000000005 59.75 472.30000000000007 59.7Q471.4000000000001 59.650000000000006 470.1000000000001 59.650000000000006Q462.80000000000007 59.650000000000006 459.20000000000005 62.85000000000001Q455.6000000000001 66.05000000000001 455.6000000000001 73.05000000000001Z M500.80000000000007 100.65Q492.70000000000005 100.65 486.65000000000003 97.25Q480.6 93.85000000000001 477.25 87.85000000000001Q473.90000000000003 81.85000000000001 473.90000000000003 74.05000000000001Q473.90000000000003 66.25 477.25 60.3Q480.6 54.35 486.6 51.0Q492.6 47.650000000000006 500.6 47.650000000000006Q508.20000000000005 47.650000000000006 513.8000000000001 50.800000000000004Q519.4000000000001 53.95 522.5 59.65Q525.6 65.35 525.6 72.95Q525.6 74.35000000000001 525.5 75.55000000000001Q525.4000000000001 76.75 525.2 77.95H481.70000000000005V69.15H515.5L512.9000000000001 71.55000000000001Q512.9000000000001 64.35 509.6000000000001 60.75Q506.30000000000007 57.150000000000006 500.40000000000003 57.150000000000006Q494.00000000000006 57.150000000000006 490.25000000000006 61.550000000000004Q486.50000000000006 65.95 486.50000000000006 74.25Q486.50000000000006 82.45 490.25000000000006 86.80000000000001Q494.00000000000006 91.15 500.90000000000003 91.15Q504.90000000000003 91.15 507.90000000000003 89.65Q510.90000000000003 88.15 512.3000000000001 85.05000000000001H524.2Q521.7 92.25 515.75 96.45Q509.80000000000007 100.65 500.80000000000007 100.65Z M555.6 100.65Q547.5 100.65 541.45 97.25Q535.4 93.85000000000001 532.05 87.85000000000001Q528.7 81.85000000000001 528.7 74.05000000000001Q528.7 66.25 532.05 60.3Q535.4 54.35 541.4 51.0Q547.4 47.650000000000006 555.4 47.650000000000006Q563.0 47.650000000000006 568.6 50.800000000000004Q574.2 53.95 577.3 59.65Q580.4 65.35 580.4 72.95Q580.4 74.35000000000001 580.3 75.55000000000001Q580.2 76.75 580.0 77.95H536.5V69.15H570.3L567.7 71.55000000000001Q567.7 64.35 564.4000000000001 60.75Q561.1 57.150000000000006 555.2 57.150000000000006Q548.8 57.150000000000006 545.05 61.550000000000004Q541.3 65.95 541.3 74.25Q541.3 82.45 545.05 86.80000000000001Q548.8 91.15 555.7 91.15Q559.7 91.15 562.7 89.65Q565.7 88.15 567.1 85.05000000000001H579.0Q576.5 92.25 570.55 96.45Q564.6 100.65 555.6 100.65Z"/>
</svg>
